#Comment line ignore any data following # character 
#Hierarchical Translation and Rotation (.htr) file 
[Header]	
#Header keywords are followed by a single value 
FileType HTR		#Single word string
DataType HTRS		#Translation followed by rotation and scale data
FileVersion 1		#integer
NumSegments 84		#integer
NumFrames 2		#integer
DataFrameRate 30		#integer, data frame rate in this file
EulerRotationOrder ZYX
CalibrationUnits mm
RotationUnits Degrees
GlobalAxisofGravity Y
BoneLengthAxis Y
ScaleFactor 1.00
[SegmentNames&Hierarchy]
#CHILD	PARENT
MASTER GLOBAL
root MASTER
chest root
L_mid_tent01 root
R_mid_tent01 root
spine01 root
Bip01_Neck chest
L_humerus chest
R_humerus chest
weapon_bone chest
Bip01_Head Bip01_Neck
eye_left_bone Bip01_Head
eye_right_bone Bip01_Head
L_forearm L_humerus
L_front_hand L_forearm
L_weapon_bone L_forearm
L_front_hand01_01 L_front_hand
L_front_hand02_01 L_front_hand
L_front_hand03_01 L_front_hand
L_front_hand01_02 L_front_hand01_01
L_front_hand02_02 L_front_hand02_01
L_front_hand03_02 L_front_hand03_01
R_forearm R_humerus
R_front_hand R_forearm
R_weapon_bone R_forearm
R_front_hand01_01 R_front_hand
R_front_hand02_01 R_front_hand
R_front_hand03_01 R_front_hand
R_front_hand01_02 R_front_hand01_01
R_front_hand02_02 R_front_hand02_01
R_front_hand03_02 R_front_hand03_01
null_rope01_connect L_mid_tent01
Rope1_Seg01 null_rope01_connect
Rope1_Seg02 Rope1_Seg01
Rope1_Seg03 Rope1_Seg02
Rope1_Seg04 Rope1_Seg03
Rope1_Seg05 Rope1_Seg04
Rope1_Seg06 Rope1_Seg05
Rope1_Seg07 Rope1_Seg06
Rope1_Seg09 Rope1_Seg07
L_mid_hand01 Rope1_Seg09
L_mid_hand02 Rope1_Seg09
L_mid_hand03 Rope1_Seg09
null_rope02_connect R_mid_tent01
Rope2_Seg01 null_rope02_connect
Rope2_Seg02 Rope2_Seg01
Rope2_Seg03 Rope2_Seg02
Rope2_Seg04 Rope2_Seg03
Rope2_Seg05 Rope2_Seg04
Rope2_Seg06 Rope2_Seg05
Rope2_Seg07 Rope2_Seg06
Rope2_Seg09 Rope2_Seg07
R_mid_hand01 Rope2_Seg09
R_mid_hand02 Rope2_Seg09
R_mid_hand03 Rope2_Seg09
spine02 spine01
spine03 spine02
pelvis spine03
null_rope03_connect pelvis
null_rope04_connect pelvis
Rope3_Seg01 null_rope03_connect
Rope3_Seg02 Rope3_Seg01
Rope3_Seg03 Rope3_Seg02
Rope3_Seg04 Rope3_Seg03
Rope3_Seg05 Rope3_Seg04
Rope3_Seg06 Rope3_Seg05
Rope3_Seg07 Rope3_Seg06
Rope3_Seg08 Rope3_Seg07
Rope3_Seg09 Rope3_Seg08
R_rear_hand01 Rope3_Seg09
R_rear_hand02 Rope3_Seg09
R_rear_hand03 Rope3_Seg09
Rope4_Seg01 null_rope04_connect
Rope4_Seg02 Rope4_Seg01
Rope4_Seg03 Rope4_Seg02
Rope4_Seg04 Rope4_Seg03
Rope4_Seg05 Rope4_Seg04
Rope4_Seg06 Rope4_Seg05
Rope4_Seg07 Rope4_Seg06
Rope4_Seg08 Rope4_Seg07
Rope4_Seg09 Rope4_Seg08
L_rear_hand01 Rope4_Seg09
L_rear_hand02 Rope4_Seg09
L_rear_hand03 Rope4_Seg09
[BasePosition]
#SegmentName Tx, Ty, Tz, Rx, Ry, Rz, BoneLength
MASTER 0.000000 0.000000 0.000000 -90.000000 0.000000 0.000000 10.000000 
root 0.000000 0.000000 0.000000 0.000000 0.000000 0.000000 10.000000 
chest 0.000000 0.000000 0.000000 0.000000 0.000000 0.000000 10.000000 
L_mid_tent01 0.000000 0.000000 0.000000 0.000000 0.000000 0.000000 10.000000 
R_mid_tent01 0.000000 0.000000 0.000000 0.000000 0.000000 0.000000 10.000000 
spine01 0.000000 0.000000 0.000000 0.000000 0.000000 0.000000 10.000000 
Bip01_Neck 0.000000 0.000000 0.000000 0.000000 0.000000 0.000000 10.000000 
L_humerus 0.000000 0.000000 0.000000 0.000000 0.000000 0.000000 10.000000 
R_humerus 0.000000 0.000000 0.000000 0.000000 0.000000 0.000000 10.000000 
weapon_bone 0.000000 0.000000 0.000000 0.000000 0.000000 0.000000 10.000000 
Bip01_Head 0.000000 0.000000 0.000000 0.000000 0.000000 0.000000 10.000000 
eye_left_bone 0.000000 0.000000 0.000000 0.000000 0.000000 0.000000 10.000000 
eye_right_bone 0.000000 0.000000 0.000000 0.000000 0.000000 0.000000 10.000000 
L_forearm 0.000000 0.000000 0.000000 0.000000 0.000000 0.000000 10.000000 
L_front_hand 0.000000 0.000000 0.000000 0.000000 0.000000 0.000000 10.000000 
L_weapon_bone 0.000000 0.000000 0.000000 0.000000 0.000000 0.000000 10.000000 
L_front_hand01_01 0.000000 0.000000 0.000000 0.000000 0.000000 0.000000 10.000000 
L_front_hand02_01 0.000000 0.000000 0.000000 0.000000 0.000000 0.000000 10.000000 
L_front_hand03_01 0.000000 0.000000 0.000000 0.000000 0.000000 0.000000 10.000000 
L_front_hand01_02 0.000000 0.000000 0.000000 0.000000 0.000000 0.000000 10.000000 
L_front_hand02_02 0.000000 0.000000 0.000000 0.000000 0.000000 0.000000 10.000000 
L_front_hand03_02 0.000000 0.000000 0.000000 0.000000 0.000000 0.000000 10.000000 
R_forearm 0.000000 0.000000 0.000000 0.000000 0.000000 0.000000 10.000000 
R_front_hand 0.000000 0.000000 0.000000 0.000000 0.000000 0.000000 10.000000 
R_weapon_bone 0.000000 0.000000 0.000000 0.000000 0.000000 0.000000 10.000000 
R_front_hand01_01 0.000000 0.000000 0.000000 0.000000 0.000000 0.000000 10.000000 
R_front_hand02_01 0.000000 0.000000 0.000000 0.000000 0.000000 0.000000 10.000000 
R_front_hand03_01 0.000000 0.000000 0.000000 0.000000 0.000000 0.000000 10.000000 
R_front_hand01_02 0.000000 0.000000 0.000000 0.000000 0.000000 0.000000 10.000000 
R_front_hand02_02 0.000000 0.000000 0.000000 0.000000 0.000000 0.000000 10.000000 
R_front_hand03_02 0.000000 0.000000 0.000000 0.000000 0.000000 0.000000 10.000000 
null_rope01_connect 0.000000 0.000000 0.000000 0.000000 0.000000 0.000000 10.000000 
Rope1_Seg01 0.000000 0.000000 0.000000 0.000000 0.000000 0.000000 10.000000 
Rope1_Seg02 0.000000 0.000000 0.000000 0.000000 0.000000 0.000000 10.000000 
Rope1_Seg03 0.000000 0.000000 0.000000 0.000000 0.000000 0.000000 10.000000 
Rope1_Seg04 0.000000 0.000000 0.000000 0.000000 0.000000 0.000000 10.000000 
Rope1_Seg05 0.000000 0.000000 0.000000 0.000000 0.000000 0.000000 10.000000 
Rope1_Seg06 0.000000 0.000000 0.000000 0.000000 0.000000 0.000000 10.000000 
Rope1_Seg07 0.000000 0.000000 0.000000 0.000000 0.000000 0.000000 10.000000 
Rope1_Seg09 0.000000 0.000000 0.000000 0.000000 0.000000 0.000000 10.000000 
L_mid_hand01 0.000000 0.000000 0.000000 0.000000 0.000000 0.000000 10.000000 
L_mid_hand02 0.000000 0.000000 0.000000 0.000000 0.000000 0.000000 10.000000 
L_mid_hand03 0.000000 0.000000 0.000000 0.000000 0.000000 0.000000 10.000000 
null_rope02_connect 0.000000 0.000000 0.000000 0.000000 0.000000 0.000000 10.000000 
Rope2_Seg01 0.000000 0.000000 0.000000 0.000000 0.000000 0.000000 10.000000 
Rope2_Seg02 0.000000 0.000000 0.000000 0.000000 0.000000 0.000000 10.000000 
Rope2_Seg03 0.000000 0.000000 0.000000 0.000000 0.000000 0.000000 10.000000 
Rope2_Seg04 0.000000 0.000000 0.000000 0.000000 0.000000 0.000000 10.000000 
Rope2_Seg05 0.000000 0.000000 0.000000 0.000000 0.000000 0.000000 10.000000 
Rope2_Seg06 0.000000 0.000000 0.000000 0.000000 0.000000 0.000000 10.000000 
Rope2_Seg07 0.000000 0.000000 0.000000 0.000000 0.000000 0.000000 10.000000 
Rope2_Seg09 0.000000 0.000000 0.000000 0.000000 0.000000 0.000000 10.000000 
R_mid_hand01 0.000000 0.000000 0.000000 0.000000 0.000000 0.000000 10.000000 
R_mid_hand02 0.000000 0.000000 0.000000 0.000000 0.000000 0.000000 10.000000 
R_mid_hand03 0.000000 0.000000 0.000000 0.000000 0.000000 0.000000 10.000000 
spine02 0.000000 0.000000 0.000000 0.000000 0.000000 0.000000 10.000000 
spine03 0.000000 0.000000 0.000000 0.000000 0.000000 0.000000 10.000000 
pelvis 0.000000 0.000000 0.000000 0.000000 0.000000 0.000000 10.000000 
null_rope03_connect 0.000000 0.000000 0.000000 0.000000 0.000000 0.000000 10.000000 
null_rope04_connect 0.000000 0.000000 0.000000 0.000000 0.000000 0.000000 10.000000 
Rope3_Seg01 0.000000 0.000000 0.000000 0.000000 0.000000 0.000000 10.000000 
Rope3_Seg02 0.000000 0.000000 0.000000 0.000000 0.000000 0.000000 10.000000 
Rope3_Seg03 0.000000 0.000000 0.000000 0.000000 0.000000 0.000000 10.000000 
Rope3_Seg04 0.000000 0.000000 0.000000 0.000000 0.000000 0.000000 10.000000 
Rope3_Seg05 0.000000 0.000000 0.000000 0.000000 0.000000 0.000000 10.000000 
Rope3_Seg06 0.000000 0.000000 0.000000 0.000000 0.000000 0.000000 10.000000 
Rope3_Seg07 0.000000 0.000000 0.000000 0.000000 0.000000 0.000000 10.000000 
Rope3_Seg08 0.000000 0.000000 0.000000 0.000000 0.000000 0.000000 10.000000 
Rope3_Seg09 0.000000 0.000000 0.000000 0.000000 0.000000 0.000000 10.000000 
R_rear_hand01 0.000000 0.000000 0.000000 0.000000 0.000000 0.000000 10.000000 
R_rear_hand02 0.000000 0.000000 0.000000 0.000000 0.000000 0.000000 10.000000 
R_rear_hand03 0.000000 0.000000 0.000000 0.000000 0.000000 0.000000 10.000000 
Rope4_Seg01 0.000000 0.000000 0.000000 0.000000 0.000000 0.000000 10.000000 
Rope4_Seg02 0.000000 0.000000 0.000000 0.000000 0.000000 0.000000 10.000000 
Rope4_Seg03 0.000000 0.000000 0.000000 0.000000 0.000000 0.000000 10.000000 
Rope4_Seg04 0.000000 0.000000 0.000000 0.000000 0.000000 0.000000 10.000000 
Rope4_Seg05 0.000000 0.000000 0.000000 0.000000 0.000000 0.000000 10.000000 
Rope4_Seg06 0.000000 0.000000 0.000000 0.000000 0.000000 0.000000 10.000000 
Rope4_Seg07 0.000000 0.000000 0.000000 0.000000 0.000000 0.000000 10.000000 
Rope4_Seg08 0.000000 0.000000 0.000000 0.000000 0.000000 0.000000 10.000000 
Rope4_Seg09 0.000000 0.000000 0.000000 0.000000 0.000000 0.000000 10.000000 
L_rear_hand01 0.000000 0.000000 0.000000 0.000000 0.000000 0.000000 10.000000 
L_rear_hand02 0.000000 0.000000 0.000000 0.000000 0.000000 0.000000 10.000000 
L_rear_hand03 0.000000 0.000000 0.000000 0.000000 0.000000 0.000000 10.000000 
#Beginning of Data. Separated by tabs
#Fr	Tx	Ty	Tz	Rx	Ry	Rz	SF
[MASTER]
40 -2582.035645 11251.802734 1357.747070 0.001660 0.001660 0.001660 11623.831055
41 -2531.701660 11308.241211 1256.363281 0.001660 0.001660 0.001660 11656.083008
[root]
40 -63.649265 -206.535034 703.340088 -102.763641 -13.010651 -70.695847 735.795654
41 -100.890274 -127.974213 898.829712 -104.422050 -13.643125 -80.206047 913.482910
[chest]
40 -84.512650 -34.090519 0.000000 -2.124471 -3.629280 169.991348 91.129311
41 -84.512650 -34.090519 0.000000 -9.366731 -1.968637 172.391602 91.129311
[L_mid_tent01]
40 27.298803 22.179258 -249.918701 -17.713860 13.306602 -29.587440 252.381668
41 27.298796 22.179258 -249.918701 -17.764969 14.935710 -43.207256 252.381668
[R_mid_tent01]
40 23.228794 24.509907 226.238495 160.586456 3.219044 53.454632 228.744751
41 23.228794 24.509907 226.238495 162.635513 0.955409 67.424744 228.744751
[spine01]
40 -0.361383 -0.195265 0.000000 0.001691 0.001628 2.192735 0.410763
41 -0.361383 -0.195265 0.000000 0.001694 0.001624 2.420284 0.410763
[Bip01_Neck]
40 165.484543 71.581718 0.000119 176.643677 -1.657967 43.431911 180.302734
41 165.484543 71.581718 0.000119 176.643677 -1.657967 43.431911 180.302734
[L_humerus]
40 -13.983130 -135.272980 -120.471481 173.463120 -3.536043 -93.227760 181.680161
41 -13.983130 -135.272980 -120.471481 173.887619 -4.931995 -92.443100 181.680161
[R_humerus]
40 -13.983309 -135.273102 125.287651 -176.999756 6.500332 -85.204895 184.909012
41 -13.983309 -135.273102 125.287651 -176.992340 7.771994 -85.136314 184.909012
[weapon_bone]
40 235.964890 -300.705902 0.000000 0.000000 -89.951546 -128.212341 382.234833
41 235.964890 -300.705902 0.000000 0.000000 -89.951546 -128.212341 382.234833
[Bip01_Head]
40 213.405975 185.823944 10.381659 0.542181 5.450705 -44.246361 283.161499
41 213.409790 185.813766 10.512814 -0.759011 5.827402 -44.024952 283.162537
[eye_left_bone]
40 -24.626970 125.451866 -64.772606 0.000000 -90.000000 -99.840431 143.318359
41 -24.626970 125.451866 -64.772606 0.000000 -90.000000 -99.840431 143.318359
[eye_right_bone]
40 -24.626970 125.451866 64.327362 0.000000 -89.965736 80.156380 143.117676
41 -24.626970 125.451866 64.327362 0.000000 -89.965736 80.156380 143.117676
[L_forearm]
40 322.776093 0.000000 -0.000119 0.000424 -0.002309 -110.803368 322.776093
41 322.776093 0.000000 -0.000119 0.000423 -0.002309 -110.744995 322.776093
[L_front_hand]
40 241.149185 -0.042021 -3.300071 -178.667953 -1.835447 -27.422350 241.171753
41 241.149185 -0.042021 -3.300071 -178.667953 -1.835447 -27.422350 241.171753
[L_weapon_bone]
40 156.183838 0.000000 0.000000 0.000014 0.000007 0.000001 156.183838
41 156.183838 0.000000 0.000000 0.000014 0.000007 0.000001 156.183838
[L_front_hand01_01]
40 86.095154 20.947098 -0.655860 -0.366594 -0.477154 75.385582 88.609184
41 86.095154 20.947098 -0.655860 -0.366594 -0.477154 75.385574 88.609184
[L_front_hand02_01]
40 86.935165 -11.437475 24.513514 154.399796 -59.883835 -61.369587 91.046425
41 86.935165 -11.437475 24.513514 154.399796 -59.883835 -61.369587 91.046425
[L_front_hand03_01]
40 86.637497 -14.123976 -20.424902 -153.913864 58.118130 -62.702873 90.126129
41 86.637497 -14.123976 -20.424902 -153.913864 58.118130 -62.702873 90.126129
[L_front_hand01_02]
40 71.020905 -0.000179 0.000030 0.000334 -0.002323 -106.376953 71.020905
41 71.020905 -0.000179 0.000030 0.000334 -0.002323 -106.377625 71.020905
[L_front_hand02_02]
40 71.020927 -0.000119 0.000060 0.000334 -0.002323 -106.376953 71.020927
41 71.020927 -0.000119 0.000060 0.000334 -0.002323 -106.377625 71.020927
[L_front_hand03_02]
40 71.020905 -0.000060 0.000060 0.000334 -0.002323 -106.376953 71.020905
41 71.020905 -0.000060 0.000060 0.000334 -0.002323 -106.377625 71.020905
[R_forearm]
40 322.776428 -0.000060 0.000030 0.201292 0.067621 -109.462128 322.776428
41 322.776428 -0.000060 0.000030 0.201327 0.067518 -109.403870 322.776428
[R_front_hand]
40 238.847015 -0.006795 2.210259 -2.635298 -10.645461 -26.312506 238.857239
41 238.847015 -0.006795 2.210259 -2.635298 -10.645461 -26.312506 238.857239
[R_weapon_bone]
40 155.664093 0.002503 -0.000030 0.003487 0.001180 -90.988930 155.664078
41 155.664093 0.002503 -0.000030 0.003487 0.001180 -90.988930 155.664078
[R_front_hand01_01]
40 87.624611 14.231146 22.918642 -154.633484 -59.950607 61.746033 91.683487
41 87.624611 14.231146 22.918642 -154.633499 -59.950619 61.746044 91.683487
[R_front_hand02_01]
40 89.356956 14.367283 -19.491137 154.602661 58.302849 63.744389 92.579636
41 89.356956 14.367283 -19.491137 154.602661 58.302849 63.744389 92.579636
[R_front_hand03_01]
40 87.286232 -22.307278 -0.143439 0.162155 -0.423168 -75.767921 90.091743
41 87.286232 -22.307278 -0.143439 0.162155 -0.423168 -75.767921 90.091743
[R_front_hand01_02]
40 71.020905 0.000060 0.000119 0.002323 -0.000334 106.381714 71.020905
41 71.020905 0.000060 0.000119 0.002323 -0.000334 106.381714 71.020905
[R_front_hand02_02]
40 71.020844 -0.000030 -0.000119 0.002323 -0.000334 106.381714 71.020836
41 71.020844 -0.000030 -0.000119 0.002323 -0.000334 106.381714 71.020836
[R_front_hand03_02]
40 71.020905 0.000000 0.000030 0.002323 -0.000334 106.381714 71.020905
41 71.020905 0.000000 0.000030 0.002323 -0.000334 106.381714 71.020905
[null_rope01_connect]
40 328.732483 0.000000 -0.000238 -159.416061 -73.154663 -65.059044 328.732483
41 328.732483 0.000000 -0.000238 -122.391380 -70.093040 -89.235725 328.732483
[Rope1_Seg01]
40 0.000038 -0.000697 0.000000 74.960968 -42.787628 31.914576 0.000698
41 0.000038 -0.000714 0.000000 88.304070 -37.228931 17.228518 0.000715
[Rope1_Seg02]
40 139.999863 -0.000179 0.000000 -1.143627 0.366320 5.767447 139.999863
41 139.999863 -0.000179 0.000000 -1.533396 1.651940 8.411333 139.999863
[Rope1_Seg03]
40 139.999924 0.000060 -0.000060 -1.124602 0.381489 8.860045 139.999924
41 139.999924 0.000060 -0.000060 -0.988964 2.299597 13.886999 139.999924
[Rope1_Seg04]
40 139.999924 -0.000060 -0.000119 -0.296857 -0.351492 15.834786 139.999924
41 139.999924 -0.000060 -0.000119 2.463843 1.455543 25.076904 139.999924
[Rope1_Seg05]
40 139.999832 0.000119 -0.000060 3.593287 -1.923950 24.527161 139.999832
41 139.999832 0.000119 -0.000060 7.728450 3.608784 21.181293 139.999832
[Rope1_Seg06]
40 139.999954 0.000119 -0.000060 8.708887 7.278450 14.652168 139.999954
41 139.999954 0.000119 -0.000060 9.948400 14.238574 10.577550 139.999954
[Rope1_Seg07]
40 139.999985 0.000060 0.000000 12.978476 21.192537 11.897646 139.999985
41 139.999985 0.000060 0.000000 11.376575 22.706705 11.939512 139.999985
[Rope1_Seg09]
40 121.602913 0.000119 -0.000089 -89.793175 -1.359789 0.847147 121.602913
41 121.602913 0.000119 -0.000089 -89.793175 -1.359789 0.847147 121.602913
[L_mid_hand01]
40 103.859421 1.038730 8.195221 130.544373 -67.584534 -38.866947 104.187431
41 103.859421 1.038730 8.195221 130.544373 -67.584534 -38.866943 104.187431
[L_mid_hand02]
40 105.572853 -4.139662 -10.864139 -168.923172 43.409309 -73.498894 106.211075
41 105.572853 -4.139662 -10.864139 -168.923172 43.409309 -73.498886 106.211075
[L_mid_hand03]
40 104.641464 17.579376 -3.913581 -6.012628 17.808178 74.893669 106.179977
41 104.641464 17.579376 -3.913581 -6.012627 17.808174 74.893669 106.179977
[null_rope02_connect]
40 328.732849 0.000179 -0.000119 -40.149174 50.687210 87.307129 328.732849
41 328.732849 0.000179 -0.000119 -38.032391 58.105335 105.731743 328.732849
[Rope2_Seg01]
40 0.000074 -0.000629 0.000000 7.586021 60.323936 -59.933544 0.000634
41 0.000074 -0.000648 0.000000 -5.208064 45.833969 -71.752617 0.000653
[Rope2_Seg02]
40 139.999741 -0.000060 -0.000119 -2.131445 -10.732803 -22.173180 139.999756
41 139.999741 -0.000060 -0.000119 -6.086239 -2.672168 -25.600243 139.999756
[Rope2_Seg03]
40 140.000107 0.000030 0.000000 -2.102473 -8.900634 -16.920710 140.000107
41 140.000107 0.000030 0.000000 -1.871003 -0.014063 -16.771669 140.000107
[Rope2_Seg04]
40 139.999802 0.000000 -0.000060 -1.629148 -4.423678 -10.110868 139.999802
41 139.999802 0.000000 -0.000060 -0.194205 0.474567 -11.263895 139.999802
[Rope2_Seg05]
40 139.999985 -0.000060 0.000119 -1.888187 -0.148341 -18.371109 139.999985
41 139.999985 -0.000060 0.000119 1.411412 1.220829 -17.932623 139.999985
[Rope2_Seg06]
40 139.999893 -0.000030 -0.000119 0.849598 2.265594 -24.865999 139.999893
41 139.999893 -0.000030 -0.000119 3.985204 0.807604 -18.394648 139.999893
[Rope2_Seg07]
40 139.999893 0.000060 -0.000060 2.420404 0.312685 -12.552050 139.999893
41 139.999893 0.000060 -0.000060 3.072886 -0.292040 -9.387153 139.999893
[Rope2_Seg09]
40 121.338966 0.000089 -0.000060 33.793236 -1.359788 -0.847141 121.338966
41 121.338966 0.000089 -0.000060 33.793236 -1.359788 -0.847141 121.338966
[R_mid_hand01]
40 104.680779 11.144459 -10.335981 -16.212063 45.237240 70.462845 105.778534
41 104.680779 11.144459 -10.335981 -16.212063 45.237247 70.462852 105.778534
[R_mid_hand02]
40 104.070427 2.443552 8.231699 49.067387 -67.749794 39.286469 104.424065
41 104.070427 2.443552 8.231699 49.067368 -67.749771 39.286453 104.424065
[R_mid_hand03]
40 106.028137 -11.221827 -5.996406 -177.101105 15.551026 -76.585571 106.788818
41 106.028137 -11.221827 -5.996406 -177.101105 15.551026 -76.585571 106.788818
[spine02]
40 129.756927 0.001550 0.000119 0.496748 -4.029268 -14.911543 129.756927
41 129.756927 0.001550 0.000119 0.491565 -4.029921 -14.834002 129.756927
[spine03]
40 78.613632 0.081720 -4.898993 1.977367 3.790629 17.714891 78.766174
41 78.613625 0.081722 -4.898993 1.974560 3.792306 17.664125 78.766167
[pelvis]
40 169.435242 0.051022 0.000000 -29.719500 -0.316166 -11.199874 169.435257
41 169.435242 0.051022 0.000000 -43.126080 -0.298822 -11.001286 169.435257
[null_rope03_connect]
40 -1.257226 -2.466202 137.391083 174.050095 -50.747261 -57.563709 137.418976
41 -1.257226 -2.466202 137.391083 -168.621765 -36.242584 -76.402260 137.418976
[null_rope04_connect]
40 -1.259640 -2.480268 -137.844437 174.050095 -50.747261 -57.563709 137.872513
41 -1.259640 -2.480268 -137.844437 -168.621765 -36.242584 -76.402260 137.872513
[Rope3_Seg01]
40 0.000000 0.000000 0.000000 25.190371 20.584417 -53.644417 0.000000
41 0.000000 0.000000 0.000000 24.301052 23.531456 -60.736298 0.000000
[Rope3_Seg02]
40 139.999924 -0.000119 0.000060 5.212040 8.472679 -9.269133 139.999924
41 139.999924 -0.000119 0.000060 3.528623 7.698220 -9.368147 139.999924
[Rope3_Seg03]
40 139.999924 -0.000119 0.000119 4.767009 9.928933 -13.045000 139.999924
41 139.999924 -0.000119 0.000119 2.844520 9.363561 -13.178223 139.999924
[Rope3_Seg04]
40 139.999924 0.000119 0.000000 2.519547 7.130449 -10.602766 139.999924
41 139.999924 0.000119 0.000000 1.100912 7.238860 -11.400708 139.999924
[Rope3_Seg05]
40 139.999924 -0.000238 0.000060 -3.801603 15.121274 -36.451359 139.999924
41 139.999924 -0.000238 0.000060 -8.202770 17.945637 -36.385574 139.999924
[Rope3_Seg06]
40 139.999893 -0.000119 -0.000060 -17.499943 14.456139 -38.368969 139.999893
41 139.999893 -0.000119 -0.000060 -16.223160 17.011919 -31.094280 139.999893
[Rope3_Seg07]
40 139.999771 0.000060 -0.000119 -6.575192 6.722252 -9.495440 139.999771
41 139.999771 0.000060 -0.000119 -5.132790 7.068866 -7.830477 139.999771
[Rope3_Seg08]
40 139.999985 -0.000060 0.000000 -2.679574 3.290811 -3.718457 139.999985
41 139.999985 -0.000060 0.000000 -2.025607 3.438811 -3.221753 139.999985
[Rope3_Seg09]
40 90.185997 -0.000179 -0.000060 89.793228 -1.359877 -0.847183 90.185997
41 90.185997 -0.000179 -0.000060 89.793228 -1.359877 -0.847183 90.185997
[R_rear_hand01]
40 103.366196 -6.073594 -10.757982 -177.714203 24.565960 -73.910950 104.101845
41 103.366196 -6.073594 -10.757982 -177.714203 24.565960 -73.910950 104.101845
[R_rear_hand02]
40 100.509819 12.039542 -7.992327 -12.874831 36.868492 72.167221 101.543350
41 100.509819 12.039542 -7.992327 -12.874829 36.868488 72.167213 101.543350
[R_rear_hand03]
40 101.539970 5.215704 5.435467 71.484581 -71.816628 21.513813 101.819031
41 101.539970 5.215704 5.435467 71.484581 -71.816628 21.513813 101.819031
[Rope4_Seg01]
40 -0.000001 -0.000697 -0.000153 -106.268555 -13.866138 -38.998989 0.000714
41 -0.000001 -0.000714 -0.000153 -112.041328 -18.325262 -51.113239 0.000730
[Rope4_Seg02]
40 139.999985 0.000060 0.000119 -18.365694 5.053427 -8.182305 139.999985
41 139.999985 0.000060 0.000119 -10.535651 6.085532 -6.565818 139.999985
[Rope4_Seg03]
40 139.999924 0.000000 -0.000238 -29.287544 15.416761 -16.212536 139.999924
41 139.999924 0.000000 -0.000238 -18.421780 14.445429 -13.717256 139.999924
[Rope4_Seg04]
40 139.999985 0.000000 0.000119 -22.454889 37.842304 -17.516407 139.999985
41 139.999985 0.000000 0.000119 -20.425562 37.438889 -21.396793 139.999985
[Rope4_Seg05]
40 139.999802 -0.000060 -0.000119 9.981796 39.648968 29.164171 139.999802
41 139.999802 -0.000060 -0.000119 9.362460 43.291153 19.768124 139.999802
[Rope4_Seg06]
40 139.999924 0.000000 0.000060 -1.304336 11.577831 8.143946 139.999924
41 139.999924 0.000000 0.000060 1.516306 10.023434 3.506389 139.999924
[Rope4_Seg07]
40 139.999802 0.000000 0.000000 -0.407642 4.414858 2.609343 139.999802
41 139.999802 0.000000 0.000000 1.295887 4.225210 1.004684 139.999802
[Rope4_Seg08]
40 139.999924 0.000000 0.000119 -1.832727 2.214464 1.331697 139.999924
41 139.999924 0.000000 0.000119 -0.746243 2.185951 0.467241 139.999924
[Rope4_Seg09]
40 90.185791 0.000060 0.000060 -135.617828 2.228885 0.850567 90.185791
41 90.185791 0.000060 0.000060 -135.617828 2.228885 0.850567 90.185791
[L_rear_hand01]
40 101.696655 -8.392275 -7.654577 -12.874829 -36.868488 107.832764 102.329041
41 101.696655 -8.392275 -7.654577 -12.874829 -36.868488 107.832764 102.329041
[L_rear_hand02]
40 102.726799 -1.568258 5.773216 71.484581 71.816628 158.486160 102.900848
41 102.726799 -1.568258 5.773216 71.484581 71.816628 158.486160 102.900848
[L_rear_hand03]
40 104.552910 9.721220 -10.420293 -177.714203 -24.565960 -106.089035 105.519653
41 104.552910 9.721220 -10.420293 -177.714203 -24.565960 -106.089035 105.519653
